0
SECTION
2
HEADER
9
$INSUNITS
70
4
9
$ACADVER
1
AC1014
9
$HANDSEED
5
FFFF
0
ENDSEC
0
SECTION
2
TABLES
0
TABLE
2
VPORT
5
8
100
AcDbSymbolTable
0
ENDTAB
0
TABLE
2
LTYPE
5
5
100
AcDbSymbolTable
0
LTYPE
5
14
100
AcDbSymbolTableRecord
100
AcDbLinetypeTableRecord
2
BYBLOCK
70
0
0
LTYPE
5
15
100
AcDbSymbolTableRecord
100
AcDbLinetypeTableRecord
2
BYLAYER
70
0
0
LTYPE
5
16
100
AcDbSymbolTableRecord
100
AcDbLinetypeTableRecord
2
DASHED
70
0
3
Dashed __ __ __ __ __ __ __ __ __ __ __ __ __ _
72
65
73
2
40
0.75
49
0.5
74
0
49
-0.25
74
0
0
ENDTAB
0
TABLE
2
LAYER
5
2
100
AcDbSymbolTable
70
3
0
LAYER
5
50
100
AcDbSymbolTableRecord
100
AcDbLayerTableRecord
2
1
70
0
62
7
6
DASHED
0
LAYER
5
51
100
AcDbSymbolTableRecord
100
AcDbLayerTableRecord
2
0
70
0
62
7
6
CONTINUOUS
0
ENDTAB
0
TABLE
2
STYLE
5
3
100
AcDbSymbolTable
70
1
0
STYLE
5
11
100
AcDbSymbolTableRecord
100
AcDbTextStyleTableRecord
2
STANDARD
70
0
0
ENDTAB
0
TABLE
2
VIEW
5
6
100
AcDbSymbolTable
70
0
0
ENDTAB
0
TABLE
2
UCS
5
7
100
AcDbSymbolTable
70
0
0
ENDTAB
0
TABLE
2
APPID
5
9
100
AcDbSymbolTable
70
2
0
APPID
5
12
100
AcDbSymbolTableRecord
100
AcDbRegAppTableRecord
2
ACAD
70
0
0
ENDTAB
0
TABLE
2
DIMSTYLE
5
A
100
AcDbSymbolTable
70
1
0
ENDTAB
0
TABLE
2
BLOCK_RECORD
5
1
100
AcDbSymbolTable
70
1
0
BLOCK_RECORD
5
1F
100
AcDbSymbolTableRecord
100
AcDbBlockTableRecord
2
*MODEL_SPACE
0
BLOCK_RECORD
5
1B
100
AcDbSymbolTableRecord
100
AcDbBlockTableRecord
2
*PAPER_SPACE
0
ENDTAB
0
ENDSEC
0
SECTION
2
BLOCKS
0
BLOCK
5
20
100
AcDbEntity
100
AcDbBlockBegin
2
*MODEL_SPACE
0
ENDBLK
5
21
100
AcDbEntity
100
AcDbBlockEnd
0
BLOCK
5
1C
100
AcDbEntity
100
AcDbBlockBegin
2
*PAPER_SPACE
0
ENDBLK
5
1D
100
AcDbEntity
100
AcDbBlockEnd
0
ENDSEC
0
SECTION
2
ENTITIES
0
LWPOLYLINE
5
100
100
AcDbEntity
8
OUTER_PROFILES
100
AcDbPolyline
90
5
10
104.72654847982622
20
118.37768543557021
30
0
10
105.68407746163204
20
118.56807810684445
30
0
10
106.49442396057665
20
119.11009700287872
30
0
10
107.03636153962924
20
119.92102104217602
30
0
10
107.22654847982625
20
120.87768543557021
30
0
0
ARC
5
101
100
AcDbEntity
8
OUTER_PROFILES
100
AcDbCircle
10
104.72654847982622
20
120.87768543557021
30
0
40
2.5
210
0
220
0
230
1
100
AcDbArc
50
180
51
270
0
LWPOLYLINE
5
102
100
AcDbEntity
8
OUTER_PROFILES
100
AcDbPolyline
90
5
10
104.72654847982622
20
123.3776854355702
30
0
10
103.76979127192833
20
123.18787123130777
30
0
10
102.95872713771135
20
122.64573588897142
30
0
10
102.41694525281727
20
121.83481851282031
30
0
10
102.22654847982622
20
120.87768543557021
30
0
0
LINE
5
103
100
AcDbEntity
8
OUTER_PROFILES
100
AcDbLine
10
104.72654847982622
20
123.3776854355702
30
0
11
104.72654847982622
21
124.80467625255747
31
0
0
LINE
5
104
100
AcDbEntity
8
OUTER_PROFILES
100
AcDbLine
10
104.72654847982622
20
124.80467625255747
30
0
11
104.72654847982622
21
130.87768543557021
31
0
0
LINE
5
105
100
AcDbEntity
8
OUTER_PROFILES
100
AcDbLine
10
104.72654847982622
20
130.87768543557021
30
0
11
0
21
130.87768543557021
31
0
0
LINE
5
106
100
AcDbEntity
8
OUTER_PROFILES
100
AcDbLine
10
0
20
130.87768543557021
30
0
11
0
21
124.80467625255747
31
0
0
LINE
5
107
100
AcDbEntity
8
OUTER_PROFILES
100
AcDbLine
10
0
20
124.80467625255747
30
0
11
0
21
123.3776854355702
31
0
0
LWPOLYLINE
5
108
100
AcDbEntity
8
OUTER_PROFILES
100
AcDbPolyline
90
5
10
2.5
20
120.87768543557021
30
0
10
2.3096073287256824
20
121.83521441737594
30
0
10
1.7675884326914268
20
122.64556091632059
30
0
10
0.95666439339422149
20
123.18749849537321
30
0
10
0
20
123.3776854355702
30
0
0
ARC
5
109
100
AcDbEntity
8
OUTER_PROFILES
100
AcDbCircle
10
0
20
120.87768543557021
30
0
40
2.5
210
0
220
0
230
1
100
AcDbArc
50
-90
51
0
0
LWPOLYLINE
5
110
100
AcDbEntity
8
OUTER_PROFILES
100
AcDbPolyline
90
5
10
-2.5000000000000355
20
120.87768543557021
30
0
10
-2.3101857957375951
20
119.92092822767225
30
0
10
-1.7680504534012438
20
119.10986409345527
30
0
10
-0.95713307725013741
20
118.56808220856118
30
0
10
0
20
118.37768543557021
30
0
0
LINE
5
111
100
AcDbEntity
8
OUTER_PROFILES
100
AcDbLine
10
-2.5000000000000355
20
120.87768543557021
30
0
11
-3.9269908169872458
21
120.87768543557021
31
0
0
LINE
5
112
100
AcDbEntity
8
OUTER_PROFILES
100
AcDbLine
10
-3.9269908169872458
20
120.87768543557021
30
0
11
-10
21
120.87768543557021
31
0
0
LINE
5
113
100
AcDbEntity
8
OUTER_PROFILES
100
AcDbLine
10
-10
20
120.87768543557021
30
0
11
-20.000000000000053
21
20.000000000000036
31
0
0
LINE
5
114
100
AcDbEntity
8
OUTER_PROFILES
100
AcDbLine
10
-20.000000000000053
20
20.000000000000036
30
0
11
-3.9269908169872458
21
20.000000000000036
31
0
0
LINE
5
115
100
AcDbEntity
8
OUTER_PROFILES
100
AcDbLine
10
-3.9269908169872458
20
20.000000000000036
30
0
11
-2.5000000000000355
21
20.000000000000036
31
0
0
LWPOLYLINE
5
116
100
AcDbEntity
8
OUTER_PROFILES
100
AcDbPolyline
90
5
10
0
20
22.500000000000036
30
0
10
-0.95752898180580204
20
22.309607328725786
30
0
10
-1.7678754807504395
20
21.767588432691532
30
0
10
-2.309813059803028
20
20.956664393394227
30
0
10
-2.5000000000000355
20
20.000000000000036
30
0
0
ARC
5
117
100
AcDbEntity
8
OUTER_PROFILES
100
AcDbCircle
10
0
20
20.000000000000036
30
0
40
2.5
210
0
220
0
230
1
100
AcDbArc
50
0
51
90
0
LWPOLYLINE
5
118
100
AcDbEntity
8
OUTER_PROFILES
100
AcDbPolyline
90
5
10
0
20
17.500000000000053
30
0
10
0.9567572078979063
20
17.689814204262511
30
0
10
1.7678213421148832
20
18.231949546598848
30
0
10
2.3096032270089832
20
19.042866922749973
30
0
10
2.5
20
20.000000000000036
30
0
0
LINE
5
119
100
AcDbEntity
8
OUTER_PROFILES
100
AcDbLine
10
0
20
17.500000000000053
30
0
11
0
21
16.073009183012807
31
0
0
LINE
5
120
100
AcDbEntity
8
OUTER_PROFILES
100
AcDbLine
10
0
20
16.073009183012807
30
0
11
0
21
0
31
0
0
LINE
5
121
100
AcDbEntity
8
OUTER_PROFILES
100
AcDbLine
10
0
20
0
30
0
11
104.72654847982622
21
0
31
0
0
LINE
5
122
100
AcDbEntity
8
OUTER_PROFILES
100
AcDbLine
10
104.72654847982622
20
0
30
0
11
104.72654847982622
21
16.073009183012807
31
0
0
LINE
5
123
100
AcDbEntity
8
OUTER_PROFILES
100
AcDbLine
10
104.72654847982622
20
16.073009183012807
30
0
11
104.72654847982622
21
17.500000000000053
31
0
0
LWPOLYLINE
5
124
100
AcDbEntity
8
OUTER_PROFILES
100
AcDbPolyline
90
5
10
102.22654847982622
20
20.000000000000036
30
0
10
102.41694115110057
20
19.04247101819432
30
0
10
102.95896004713478
20
18.232124519249677
30
0
10
103.76988408643203
20
17.690186940197062
30
0
10
104.72654847982622
20
17.500000000000053
30
0
0
ARC
5
125
100
AcDbEntity
8
OUTER_PROFILES
100
AcDbCircle
10
104.72654847982622
20
20.000000000000036
30
0
40
2.5
210
0
220
-0
230
1
100
AcDbArc
50
90
51
180
0
LWPOLYLINE
5
126
100
AcDbEntity
8
OUTER_PROFILES
100
AcDbPolyline
90
5
10
107.22654847982625
20
20.000000000000036
30
0
10
107.03673427556382
20
20.956757207898011
30
0
10
106.49459893322748
20
21.767821342114992
30
0
10
105.68368155707634
20
22.309603227009084
30
0
10
104.72654847982622
20
22.500000000000036
30
0
0
LINE
5
127
100
AcDbEntity
8
OUTER_PROFILES
100
AcDbLine
10
107.22654847982625
20
20.000000000000036
30
0
11
108.65353929681346
21
20.000000000000036
31
0
0
LINE
5
128
100
AcDbEntity
8
OUTER_PROFILES
100
AcDbLine
10
108.65353929681346
20
20.000000000000036
30
0
11
124.72654847982626
21
20.000000000000036
31
0
0
LINE
5
129
100
AcDbEntity
8
OUTER_PROFILES
100
AcDbLine
10
124.72654847982626
20
20.000000000000036
30
0
11
114.72654847982622
21
120.87768543557021
31
0
0
LINE
5
130
100
AcDbEntity
8
OUTER_PROFILES
100
AcDbLine
10
114.72654847982622
20
120.87768543557021
30
0
11
108.65353929681346
21
120.87768543557021
31
0
0
LINE
5
131
100
AcDbEntity
8
OUTER_PROFILES
100
AcDbLine
10
108.65353929681346
20
120.87768543557021
30
0
11
107.22654847982625
21
120.87768543557021
31
0
0
LINE
5
132
100
AcDbEntity
8
BEND
100
AcDbLine
10
1.5480879023782634
20
122.84118084406384
30
-6.2172489379008766e-14
11
103.17908986207277
21
122.84118084406384
31
-6.2172489379008766e-14
0
LINE
5
133
100
AcDbEntity
8
BEND
100
AcDbLine
10
106.69004388831985
20
119.32959753319182
30
-6.2172489379008766e-14
11
106.69004388831985
21
21.547458617753641
31
-6.2172489379008766e-14
0
LINE
5
134
100
AcDbEntity
8
BEND
100
AcDbLine
10
-1.963495408493614
20
21.548087902378406
30
-6.2172489379008766e-14
11
-1.963495408493614
21
119.33022681781659
31
-6.2172489379008766e-14
0
LINE
5
135
100
AcDbEntity
8
BEND
100
AcDbLine
10
103.17846057744794
20
18.036504591506421
30
-6.2172489379008766e-14
11
1.5474586177534633
21
18.036504591506421
31
-6.2172489379008766e-14
0
LINE
5
136
100
AcDbEntity
8
BEND_EXTENT
100
AcDbLine
10
0
20
124.80467625255747
30
-6.2172489379008766e-14
11
104.72654847982622
21
124.80467625255747
31
-6.2172489379008766e-14
0
LINE
5
137
100
AcDbEntity
8
BEND_EXTENT
100
AcDbLine
10
2.5
20
120.87768543557021
30
-6.2172489379008766e-14
11
102.22654847982622
21
120.87768543557021
31
-6.2172489379008766e-14
0
LINE
5
138
100
AcDbEntity
8
BEND_EXTENT
100
AcDbLine
10
0
20
22.500000000000036
30
-6.2172489379008766e-14
11
0
21
118.37768543557021
31
-6.2172489379008766e-14
0
LINE
5
139
100
AcDbEntity
8
BEND_EXTENT
100
AcDbLine
10
102.22654847982622
20
20.000000000000036
30
-6.2172489379008766e-14
11
2.5
21
20.000000000000036
31
-6.2172489379008766e-14
0
LINE
5
140
100
AcDbEntity
8
BEND_EXTENT
100
AcDbLine
10
104.72654847982622
20
118.37768543557021
30
-6.2172489379008766e-14
11
104.72654847982622
21
22.500000000000036
31
-6.2172489379008766e-14
0
LINE
5
141
100
AcDbEntity
8
BEND_EXTENT
100
AcDbLine
10
108.65353929681346
20
120.87768543557021
30
-6.2172489379008766e-14
11
108.65353929681346
21
20.000000000000036
31
-6.2172489379008766e-14
0
LINE
5
142
100
AcDbEntity
8
BEND_EXTENT
100
AcDbLine
10
104.72654847982622
20
16.073009183012807
30
-6.2172489379008766e-14
11
0
21
16.073009183012807
31
-6.2172489379008766e-14
0
LINE
5
143
100
AcDbEntity
8
BEND_EXTENT
100
AcDbLine
10
-3.9269908169872458
20
20.000000000000036
30
-6.2172489379008766e-14
11
-3.9269908169872458
21
120.87768543557021
31
-6.2172489379008766e-14
0
ENDSEC
0
SECTION
2
OBJECTS
0
DICTIONARY
5
C
100
AcDbDictionary
3
ACAD_GROUP
350
D
3
ACAD_MLINESTYLE
350
17
0
DICTIONARY
5
D
100
AcDbDictionary
0
DICTIONARY
5
1A
330
C
100
AcDbDictionary
0
DICTIONARY
5
17
100
AcDbDictionary
0
ENDSEC
0
EOF
